<svg xmlns="http://www.w3.org/2000/svg" viewBox="0 0 152.8281 96.5819">
  <g id="black-rgb">
    <g>
      <path id="fullLogo" d="M18.0709,50.4062a5.3917,5.3917,0,0,1,1.1777,3.5957,5.0579,5.0579,0,0,1-2.0889,4.35q-2.0888,1.5234-6.1709,1.5234H.8765V37.8915h9.4844A9.5364,9.5364,0,0,1,16.06,39.3681a4.8639,4.8639,0,0,1,2.0264,4.1768,5.2367,5.2367,0,0,1-.8955,3.0927,5.3611,5.3611,0,0,1-2.4649,1.9A5.8385,5.8385,0,0,1,18.0709,50.4062ZM3.2008,39.8076v7.9765h7.0029a7.0671,7.0671,0,0,0,4.1142-1.0205,3.7711,3.7711,0,0,0,0-5.9355,7.0747,7.0747,0,0,0-4.1142-1.02ZM15.4166,56.954a3.5053,3.5053,0,0,0,1.5078-3.1406q0-4.1133-5.9668-4.1133H3.2008v8.2588h7.7568A8.0722,8.0722,0,0,0,15.4166,56.954Z"/>
      <path id="fullLogo-2" data-name="fullLogo" d="M42.1734,57.8652v2.01H26.6285V37.8915H41.7027v2.01h-12.75v7.82H40.3209V49.7H28.9527v8.1651Z"/>
      <path id="fullLogo-3" data-name="fullLogo" d="M85.4176,37.8915,78.1314,59.8749h-4.334L68.3648,43.6074,62.8375,59.8749H58.4722L51.1861,37.8915h4.24L60.89,54.5986l5.6846-16.7071h3.7685l5.5586,16.8018L81.523,37.8915Z"/>
      <path id="fullLogo-4" data-name="fullLogo" d="M106.897,56.4521v3.4228H90.41V37.8915h16.0479v3.4239H94.4918V47.03H105.107v3.36H94.4918v6.0615Z"/>
      <path id="fullLogo-5" data-name="fullLogo" d="M114.5914,37.8915h4.082V56.4208h11.4942v3.4541H114.5914Z"/>
      <path id="fullLogo-6" data-name="fullLogo" d="M136.5435,37.8915h4.0821V56.4208H152.12v3.4541H136.5435Z"/>
      <path id="fullLogo-7" data-name="fullLogo" d="M14.1389,90.9149c.1782.2079.2971.4752.1782.4159a3.1106,3.1106,0,0,1-.4752-.208,3.2289,3.2289,0,0,0-1.9605-.2079,19.1018,19.1018,0,0,0-6.713,2.198L2.8218,94.45c-.8614.5347-1.6634,1.01-1.7525,1.04a.8518.8518,0,0,1-.7426.0891C.0891,95.4892,0,95.311,0,95.0139s.03-.3563.8911-2.1683c.4753-.9208,1.3664-2.7921,2.02-4.1585,1.2772-2.7624,2.9109-6.1784,5.7625-12.03l2.198-4.5743a19.3009,19.3009,0,0,0,1.6931-4.8417c.1485-.8614.2376-1.099.5644-1.099.4752,0,.5644.3564.3564,1.1881-.4158,1.6634-1.01,3.0892-3.208,7.6042-1.96,4.04-2.97,6.2377-4.99,10.99-1.604,3.7723-2.2574,5.2872-3.0891,7.01a2.0375,2.0375,0,0,0-.2674.6238c.03,0,.4159-.2376.8911-.5347a30.03,30.03,0,0,1,3.8318-1.8713A15.0875,15.0875,0,0,1,12.06,90.0832l.1188.0594A2.6128,2.6128,0,0,1,14.1389,90.9149Z"/>
      <path id="fullLogo-8" data-name="fullLogo" d="M20.2583,83.1028v.1486a.4226.4226,0,0,1-.0594.1782l-.2673.2079a32.23,32.23,0,0,1-4.4556,2.97c-1.3663.6832-2.2277.7722-2.7624.2376a2.0079,2.0079,0,0,1-.1188-2.05,1.9571,1.9571,0,0,1,.0891-.297s.8911-1.7228,1.3664-2.8219c.297-.6832.4752-.9208.802-.9505a.5025.5025,0,0,1,.594.3565c.1486.2673.0892.505-.3564,1.1881a15.6043,15.6043,0,0,0-1.7822,3.8021c-.03.3564.0594.4752.3564.4752a6.1329,6.1329,0,0,0,2.6436-1.0693c1.04-.6238,3.03-1.9307,3.6536-2.4357A.2032.2032,0,0,1,20.2583,83.1028Zm-4.0991-5.2872c.7723-.802,1.8119-.03,1.2179.9208a1.7094,1.7094,0,0,1-.7129.6832v-.03a.4466.4466,0,0,1-.505-.03A1.01,1.01,0,0,1,16.1592,77.8156Zm4.1288,5.3763-.03-.0891A.1091.1091,0,0,1,20.288,83.1919Z"/>
      <path id="fullLogo-9" data-name="fullLogo" d="M21.0009,83.0731a27.2139,27.2139,0,0,0-1.1584,2.8219c-.03.4455,1.3664.3267,2.9406-.2673a20.7516,20.7516,0,0,0,4.99-2.7922.2761.2761,0,0,1,.4456.2376.1849.1849,0,0,1-.1188.1783c0,.03-.03.0594-.0594.089a23.7034,23.7034,0,0,1-3.505,2.2575,11.1873,11.1873,0,0,1-3.8021,1.2179l-.5347.0594.0594.2079c0,.1188.03.6238.03,1.099a9.02,9.02,0,0,1-1.5149,4.9606A4.231,4.231,0,0,1,17.5256,94.42c-.7129.297-1.01-.2673-.8614-1.5743a47.5655,47.5655,0,0,1,2.97-9.5645l.2673-.6535s.4753-1.0694,1.1287-2.3169a33.2606,33.2606,0,0,1,6.119-8.7329c1.0693-1.04,1.8713-1.6336,2.2277-1.6336a.73.73,0,0,1,.5941.5049c.1485.5346-.1782,1.1882-1.396,3.06a67.0693,67.0693,0,0,1-6.7725,8.4061h.03A2.5441,2.5441,0,0,0,21.0009,83.0731Zm-1.604,4.4556-.0891-.2376-.4752,1.3366c-.8317,2.4654-1.5149,4.9011-1.307,4.9011,0,0,.2079-.297.4455-.7129a8.91,8.91,0,0,0,1.4258-3.5051v-.03A5.6673,5.6673,0,0,0,19.3969,87.5287Zm3.4159-7.6339c.1783-.1782.6535-.7129,1.0694-1.2475a28.0759,28.0759,0,0,0,2.3169-3.1189c.5643-.8614,1.901-3.0892,2.0792-3.4456l.0891-.2079-.1782.2079a26.5872,26.5872,0,0,0-2.109,2.4951,40.9332,40.9332,0,0,0-3.3565,5.1387l-.2079.4753Z"/>
      <path id="fullLogo-10" data-name="fullLogo" d="M37.7539,83.0137a1.2914,1.2914,0,0,0-.2079.1188A55.73,55.73,0,0,1,31.9617,86.43c-2.2575,1.1288-3.6535,1.4852-4.4555,1.0991-.95-.4456-1.1288-1.4852-.5347-3.2674A11.4824,11.4824,0,0,1,28.1,81.9147c1.1584-1.7525,3.0594-2.4654,3.9505-1.4852.6238.7129.1485,1.7228-1.396,2.8516a2.9417,2.9417,0,0,1-1.6634.6832h-.4753l-.1782.5049a6.3666,6.3666,0,0,0-.4456,1.604c0,.297.1783.4159.7129.4159,1.3664,0,3.8318-1.1288,8.2279-3.7724.802-.505.1188-.0595.5941-.3565a.35.35,0,0,1,.5347.297l-.03.03A.4105.4105,0,0,1,37.7539,83.0137Zm-8.5546-.03.5644-.3564A4.8448,4.8448,0,0,0,30.9221,81.41c-.1485-.0594-.7426.3268-1.1584.7426a2.8955,2.8955,0,0,0-.6832.8614l-.1188.1188Z"/>
      <path id="fullLogo-11" data-name="fullLogo" d="M50.1407,86.6376l-.297.1782V87.44a3.13,3.13,0,0,1-.3268,1.5742,12.0744,12.0744,0,0,1-2.9406,3.4753c-2.3169,2.05-4.7823,3.5645-6.4754,3.9506a3.6767,3.6767,0,0,1-1.307.1189.5837.5837,0,0,1-.3861-.2674c-.3564-.4752.3267-1.4851,2.2278-3.3268a44.2041,44.2041,0,0,1,7.6338-5.7625l.0594-.03c.3267-.2079.4752-.2673.505-.4158,0-.1188-.0595-.208-.1783-.3862l-.03-.03a3.8663,3.8663,0,0,0-2.406-1.396,31.0453,31.0453,0,0,0-4.6337-.6239A12.181,12.181,0,0,1,37.2493,83.4c-1.4851-.7427-1.901-2.05-1.2772-3.9506,1.4258-4.2773,8.4655-10.723,14.2577-13.01a9.72,9.72,0,0,1,3.3565-.7723,2.32,2.32,0,0,1,2.2575,1.0693,1.3514,1.3514,0,0,1,.1188.7723,2.5173,2.5173,0,0,1-.1188.8614,14.3576,14.3576,0,0,1-3.2971,4.6932,7.8568,7.8568,0,0,1-3.2377,2.2277c-.6535.2377-1.2179.1486-1.4258-.2376a.2662.2662,0,0,1,.03-.3564,1.9561,1.9561,0,0,1,.3267-.1188c.7426-.1188,1.901-.98,3.2971-2.3763a13.4431,13.4431,0,0,0,3.2377-4.4852c.1188-.4456,0-.6238-.4456-.8614a1.8445,1.8445,0,0,0-.8614-.0891,4.4033,4.4033,0,0,0-.98.0891c-2.6733.5643-6.1189,2.5545-9.416,5.4654A37.49,37.49,0,0,0,40.0118,75.41c-2.0793,2.4357-3.2674,4.604-3.1783,5.7922a1.4869,1.4869,0,0,0,.95,1.3367c.802.4158,1.7525.594,4.3961.8911a21.6041,21.6041,0,0,1,5.317.9208,4.0325,4.0325,0,0,1,2.1386,1.7525c.1486.2376.1486.2376.208.2376.03,0,.0594,0,.7426-.3565a19.6521,19.6521,0,0,1,5.109-2.1683A38.7832,38.7832,0,0,0,50.1407,86.6376Zm-1.6337.98c-1.1584.7128-3.9506,2.6436-5.1981,3.5941-2.3169,1.7823-4.6338,3.9506-4.6338,4.6635a.1635.1635,0,0,0,.0594.1485c0,.03.0594.03.1188.03h.208c.1485-.03.5049-.1188.802-.2079a16.453,16.453,0,0,0,2.4357-1.1881,23.3308,23.3308,0,0,0,4.3367-3.416,6.9111,6.9111,0,0,0,2.1981-3.1189,2.1739,2.1739,0,0,0,.1188-.4753l-.0891-.2376Z"/>
      <path id="fullLogo-12" data-name="fullLogo" d="M68.5873,73.3007c.0892.3266-.03.6832-.1782.7425-.1782.0594-.2673-.03-.3564-.297a.69.69,0,0,0-.3268-.3267c-.2376-.1188-.3564-.1188-1.5445-.1188a14.1239,14.1239,0,0,0-2.9407.2673l-2.2278.3564a3.6342,3.6342,0,0,0-.6535.1485c-.0891.0891-1.2772,2.3763-1.6634,3.208a59.2344,59.2344,0,0,0-4.0694,10.426c-.2079.98-.0594,1.1584.6238.802.802-.4159,1.8713-1.4258,4.5447-4.2476.5049-.5347.98-1.01,1.3663-1.4258.1486-.1783.3862-.0594.3862.1782a.1186.1186,0,0,1-.0594.1188c-.208.2376-.5347.5644-.8614.9208-1.5446,1.6634-3.713,3.8318-4.3962,4.3665-1.2178,1.01-1.9307,1.099-2.2871.297-.3565-.8317.1782-3.1189,1.6337-6.6833l.2673-.802a6.4908,6.4908,0,0,1,.2673-.6832l.6832-1.5742c.802-1.8714,1.1882-2.7031,1.7822-3.921l.4753-.9207-.2376.0593a32.4618,32.4618,0,0,1-4.4853.3862,2.7477,2.7477,0,0,1-2.8219-1.7822c-.1781-.3565-.1781-.3862-.1188-.5941a.5208.5208,0,0,1,.8317-.3267c.1188.089.1486.1782.1486.5643a1.1138,1.1138,0,0,0,.1485.6832c.3861.5644,1.5149.802,3.06.6535,1.4554-.1486,3.8317-.4752,3.9208-.5347.0594-.0891.9208-1.6931,1.0991-2.05a1.4637,1.4637,0,0,0,.1485-.5347,1.4024,1.4024,0,0,1,.7426-1.2178.6274.6274,0,0,1,.8317.2376.9537.9537,0,0,1-.0594,1.01,24.804,24.804,0,0,0-1.3961,2.3466l1.1585-.2079a23.3423,23.3423,0,0,1,4.7822-.6238,2.1413,2.1413,0,0,1,.9505.2079l.0594.0891A1.4306,1.4306,0,0,1,68.5873,73.3007Z"/>
      <path id="fullLogo-13" data-name="fullLogo" d="M69.5971,81.8553c-.5941.3267-2.3169,1.5446-3.1783,2.198l-.8911.7129-.2673.9208c-1.04,3.6536-3,7.3665-4.6635,8.8517a2.0551,2.0551,0,0,1-1.8416.7129,1.349,1.349,0,0,1-.7426-1.4852,7.8274,7.8274,0,0,1,1.4258-3.208,27.1929,27.1929,0,0,1,5.1387-5.9407c.2673-.2079.2673-.2079.5644-1.2773a14.0591,14.0591,0,0,0,.4455-2.198l-.6832.8317a24.8164,24.8164,0,0,1-2.703,2.7921c-.7723.5644-1.1881.6832-1.5149.3862-.1485-.1782-.1485-.2079-.1485-.7426a3.7494,3.7494,0,0,1,.0891-.8911l.0891-.3565.4159-1.2475.2673-.6832c.1782-.3862.3565-.8911.4456-1.099.1485-.4456.4158-.7426.6534-.7426a.7647.7647,0,0,1,.5941.5644c.03.1485-.03.2673-.1782.5346-.4753.8911-1.3664,2.703-1.5446,3.1783-.2376.7426-.2673.9505-.1485.9505a4.5738,4.5738,0,0,0,1.604-1.0693,31.2124,31.2124,0,0,0,3-3.4456.3605.3605,0,0,1,.6832,0c.0892.1485.0594.297-.1188.95-.0891.4455-.2673,1.1881-.3861,1.6931l-.2376.9208.594-.4753a16.9855,16.9855,0,0,1,3.2674-1.99c.0594,0,.1782.0594.1782.0891l.0891.03C70.013,81.4988,69.8941,81.7067,69.5971,81.8553Zm-5.109,3.8911a28.2507,28.2507,0,0,0-3.3565,3.3566c-1.3664,1.6336-2.3169,3.4753-2.3466,4.5446-.03.6832.1485.802.7426.4753,1.1584-.6832,2.7921-2.97,3.8912-5.4655h.03A19.0485,19.0485,0,0,0,64.4881,85.7464Z"/>
      <path id="fullLogo-14" data-name="fullLogo" d="M69.1813,84.8553c-.6832,1.8416-.6237,2.3169.2971,1.8714.5643-.2674,1.099-.7427,3-2.6139l1.2178-1.2476a.2748.2748,0,0,1,.4752.2376.5.5,0,0,1-.0594.1486c-.1782.1485-.8614.9207-1.2772,1.3366A18.681,18.681,0,0,1,70.37,86.994c-1.099.8317-1.9307.8614-2.3169.0594a3.57,3.57,0,0,1,.0594-2.2277c.1782-.6832.5941-1.8417.5941-1.8417l.5049-1.1287c.5347-1.2178,1.96-3.9506,3.1486-6.0893,1.2773-2.2574,1.3961-2.495,1.4852-3.297a.9072.9072,0,0,1,.2376-.5644.6779.6779,0,0,1,1.1585.0891c.2079.4455.1188.6534-.9208,2.4951l-.03-.03A82.937,82.937,0,0,0,69.1813,84.8553Z"/>
      <path id="fullLogo-15" data-name="fullLogo" d="M83.9141,83.0137a1.2914,1.2914,0,0,0-.2079.1188A55.73,55.73,0,0,1,78.1219,86.43c-2.2574,1.1288-3.6535,1.4852-4.4555,1.0991-.95-.4456-1.1287-1.4852-.5347-3.2674a11.4824,11.4824,0,0,1,1.1288-2.3466c1.1584-1.7525,3.0594-2.4654,3.9506-1.4852.6237.7129.1485,1.7228-1.3961,2.8516a2.9414,2.9414,0,0,1-1.6634.6832h-.4753l-.1782.5049a6.3655,6.3655,0,0,0-.4455,1.604c0,.297.1782.4159.7128.4159,1.3664,0,3.8318-1.1288,8.2279-3.7724.802-.505.1188-.0595.5941-.3565a.35.35,0,0,1,.5347.297l-.03.03A.41.41,0,0,1,83.9141,83.0137Zm-8.5546-.03.5644-.3564A4.8448,4.8448,0,0,0,77.0823,81.41c-.1485-.0594-.7426.3268-1.1584.7426a2.8955,2.8955,0,0,0-.6832.8614l-.1188.1188Z"/>
      <path id="fullLogo-16" data-name="fullLogo" d="M104.4991,64.9836c.6535.802.6832,2.05.0594,4.04a27.1466,27.1466,0,0,1-1.3961,3.3268,7.6617,7.6617,0,0,1-2.703,3.03.9016.9016,0,0,1-1.2772-.297.67.67,0,0,1,.5643-.9209c.8615-.2376,2.05-1.6634,2.97-3.5941a10.4271,10.4271,0,0,0,1.1287-3.8912c0-.594-.0891-.8317-.4455-1.01a1.55,1.55,0,0,0-1.2773,0,10.6548,10.6548,0,0,0-3.5644,2.2575,30.7326,30.7326,0,0,0-4.2179,4.8714,37.4783,37.4783,0,0,0-6,14.733,11.89,11.89,0,0,0-.1783,2.3763,6.0013,6.0013,0,0,0,.1485,1.8119c.3565,1.3663.9209,1.9307,1.9308,1.9307A4.4766,4.4766,0,0,0,92.38,92.905c1.5743-.9208,3.3565-2.4357,7.1882-6.0892,3.3862-3.2674,3.5645-3.3862,3.8615-3.3862.3862,0,0,.594-1.4555,2.0792-1.5149,1.5743-2.2278,2.2872-3.6535,3.5942-4.7526,4.4852-7.218,5.97-8.9408,5.4654-1.5743-.4455-2.4654-2.1981-2.4654-4.812,0-4.04,2.0792-10.3962,4.99-15.2973A30.2024,30.2024,0,0,1,98.7069,66.38l-.1188-.0891C101.1723,64.2708,103.5189,63.7361,104.4991,64.9836Z"/>
      <path id="fullLogo-17" data-name="fullLogo" d="M113.53,83.0137a1.2928,1.2928,0,0,0-.208.1188,55.73,55.73,0,0,1-5.5843,3.2971c-2.2574,1.1288-3.6535,1.4852-4.4555,1.0991-.95-.4456-1.1287-1.4852-.5347-3.2674a11.4824,11.4824,0,0,1,1.1288-2.3466c1.1584-1.7525,3.06-2.4654,3.9506-1.4852.6237.7129.1485,1.7228-1.3961,2.8516a2.9414,2.9414,0,0,1-1.6634.6832h-.4753l-.1782.5049a6.3655,6.3655,0,0,0-.4455,1.604c0,.297.1782.4159.7128.4159,1.3664,0,3.8318-1.1288,8.2279-3.7724.802-.505.1188-.0595.5941-.3565a.35.35,0,0,1,.5347.297l-.03.03A.41.41,0,0,1,113.53,83.0137Zm-8.5547-.03.5644-.3564a4.8448,4.8448,0,0,0,1.1584-1.2179c-.1485-.0594-.7426.3268-1.1584.7426a2.8955,2.8955,0,0,0-.6832.8614l-.1188.1188Z"/>
      <path id="fullLogo-18" data-name="fullLogo" d="M122.1441,83.4c-.4159.3564-3.5644,3.3862-3.9209,3.5644a3.4753,3.4753,0,0,1-.7426.2079c-1.396.1189-.5643-2.2574-.3267-2.8516a18.7212,18.7212,0,0,1,1.4258-2.495,3.9478,3.9478,0,0,0,.5346-.8911,4.59,4.59,0,0,0-1.307.802,31.9827,31.9827,0,0,0-3.6238,3.3862,17.5117,17.5117,0,0,1-2.1089,1.99.5216.5216,0,0,1-.4456-.5346,11.9487,11.9487,0,0,1,.4752-1.9308l.0892-.297s.4455-1.2179.6832-1.7228c.6534-1.3367,1.0693-1.9308,1.4554-2.05a.5371.5371,0,0,1,.6832.2673c.2377.3268.1485.6238-.3267,1.3961-.2377.3862-.6832,1.2179-1.01,1.8416l-.5941,1.1882.3861-.3564c.2377-.208.7723-.7129,1.2179-1.0991a27.2488,27.2488,0,0,1,4.1585-3.3268c.6535-.3267,1.04-.2079,1.04.2971a6.5726,6.5726,0,0,1-.9505,2.1089l-.0891.0891c-.2971.5347-.5941,1.099-.8614,1.6634a6.3312,6.3312,0,0,0-.5941,1.6337c-.03.1782,0,.3565.2079.3565.1486,0,.2674-.1189.3862-.1783.7426-.5346,1.4258-1.1881,2.1089-1.7822.6238-.5346,1.2179-1.1287,1.9011-1.6634a.2729.2729,0,0,1,.4158.2079l-.1485-.03A.199.199,0,0,1,122.1441,83.4Z"/>
      <path id="fullLogo-19" data-name="fullLogo" d="M135.3921,73.3007c.0891.3266-.03.6832-.1782.7425-.1783.0594-.2674-.03-.3565-.297a.69.69,0,0,0-.3267-.3267c-.2377-.1188-.3565-.1188-1.5446-.1188a14.1239,14.1239,0,0,0-2.9407.2673l-2.2277.3564a3.6318,3.6318,0,0,0-.6535.1485c-.0891.0891-1.2773,2.3763-1.6634,3.208a59.2182,59.2182,0,0,0-4.0694,10.426c-.2079.98-.0594,1.1584.6238.802.802-.4159,1.8713-1.4258,4.5446-4.2476.505-.5347.98-1.01,1.3664-1.4258.1485-.1783.3861-.0594.3861.1782a.1186.1186,0,0,1-.0594.1188c-.2079.2376-.5347.5644-.8614.9208-1.5446,1.6634-3.7129,3.8318-4.3961,4.3665-1.2179,1.01-1.9308,1.099-2.2872.297-.3565-.8317.1782-3.1189,1.6337-6.6833l.2673-.802a6.4918,6.4918,0,0,1,.2674-.6832l.6831-1.5742c.8021-1.8714,1.1882-2.7031,1.7823-3.921l.4752-.9207-.2376.0593a32.4606,32.4606,0,0,1-4.4852.3862,2.7476,2.7476,0,0,1-2.8219-1.7822c-.1782-.3565-.1782-.3862-.1188-.5941a.5208.5208,0,0,1,.8317-.3267c.1188.089.1485.1782.1485.5643a1.1138,1.1138,0,0,0,.1485.6832c.3862.5644,1.5149.802,3.06.6535,1.4555-.1486,3.8318-.4752,3.9209-.5347.0594-.0891.9208-1.6931,1.099-2.05a1.4637,1.4637,0,0,0,.1485-.5347,1.4026,1.4026,0,0,1,.7426-1.2178.6274.6274,0,0,1,.8317.2376.9537.9537,0,0,1-.0594,1.01,24.8257,24.8257,0,0,0-1.3961,2.3466l1.1585-.2079a23.343,23.343,0,0,1,4.7823-.6238,2.1417,2.1417,0,0,1,.95.2079l.0594.0891A1.4309,1.4309,0,0,1,135.3921,73.3007Z"/>
      <path id="fullLogo-20" data-name="fullLogo" d="M137.9464,83.0137a1.2914,1.2914,0,0,0-.2079.1188,55.7421,55.7421,0,0,1-5.5842,3.2971c-2.2575,1.1288-3.6536,1.4852-4.4556,1.0991-.9505-.4456-1.1287-1.4852-.5347-3.2674a11.4824,11.4824,0,0,1,1.1288-2.3466c1.1584-1.7525,3.0594-2.4654,3.9505-1.4852.6238.7129.1486,1.7228-1.396,2.8516a2.9417,2.9417,0,0,1-1.6634.6832h-.4753l-.1782.5049a6.3666,6.3666,0,0,0-.4456,1.604c0,.297.1783.4159.7129.4159,1.3664,0,3.8318-1.1288,8.2279-3.7724.802-.505.1189-.0595.5941-.3565a.35.35,0,0,1,.5347.297l-.03.03A.41.41,0,0,1,137.9464,83.0137Zm-8.5546-.03.5644-.3564a4.8448,4.8448,0,0,0,1.1584-1.2179c-.1485-.0594-.7426.3268-1.1584.7426a2.8955,2.8955,0,0,0-.6832.8614l-.1188.1188Z"/>
      <path id="fullLogo-21" data-name="fullLogo" d="M144.2737,82.6572a16.5377,16.5377,0,0,1-1.4852,1.01,1.248,1.248,0,0,1-1.1287,0c-.2971-.2079-.4159-.5347-.4753-1.1585l-.0594-.5643a10.4585,10.4585,0,0,0-1.8713,2.1386c-.4456.5941-1.2476,1.7229-1.8119,2.5546-1.1288,1.693-1.1882,1.7822-1.3961,1.7822-.4456,0-.4456-.6238,0-1.96.1782-.4753.3267-.9208.3267-.9505s.8317-2.3763.98-2.8812c.2079-.7129.297-.9209.4752-1.01a.4691.4691,0,0,1,.6535.089c.2673.2971.2673.505-.3268,2.109-.297.7426-.5346,1.3961-.5346,1.3961l.2673-.3268a24.536,24.536,0,0,1,3.1189-3.5941c.4455-.2079.7129.0891.7129.802,0,1.3961.5346,1.5149,2.1386.4456a2.3992,2.3992,0,0,0,.2377-.1783c.1188-.0593.297,0,.297.1485l-.0594-.03C144.3331,82.5385,144.3331,82.6276,144.2737,82.6572Z"/>
      <path id="fullLogo-22" data-name="fullLogo" d="M152.8281,81.7662v.1485a.1186.1186,0,0,1-.0594.1188,41.5088,41.5088,0,0,0-4.1882,2.4357c-.5347.3861-.7129.5941-.7129.6535a2.424,2.424,0,0,1,0,1.3069,13.2413,13.2413,0,0,1-3.1189,4.8417c-1.3366,1.3961-2.1683,1.7525-2.703,1.1882-.1485-.1782-.1485-.208-.1485-.7129a1.9494,1.9494,0,0,1,.297-1.2179,16.5906,16.5906,0,0,1,3.1783-3.9208c.4753-.4753,1.0693-1.04,1.2772-1.2179.3565-.297.3862-.3267.2674-.4158a6.1142,6.1142,0,0,0-.7426-.2971,4.1132,4.1132,0,0,1-1.5446-.7426,2.6256,2.6256,0,0,1-.6535-1.1584l-.03-.2674a3.2661,3.2661,0,0,1,.1188-.7425,1.3443,1.3443,0,0,1,1.1585-1.0694.75.75,0,0,1,.7723.8317c0,.2377-.03.2971-.4456.7129a2.1069,2.1069,0,0,0-.4158.5941.98.98,0,0,0,.3861.5941,7.9664,7.9664,0,0,0,.9505.5049,7.7541,7.7541,0,0,1,.9208.5347l.1486.1485.7425-.5644a48.639,48.639,0,0,1,4.3071-2.4356l.03.03C152.7093,81.5582,152.8281,81.6473,152.8281,81.7662Zm-5.5843,3.802a33.9972,33.9972,0,0,0-3.4159,3.4456,6.0326,6.0326,0,0,0-1.3664,2.7031c0,.3861.0892.4455.5347.2376.98-.4752,3.5644-3.8318,4.1585-5.4061C147.3032,86.0732,147.3626,85.6277,147.2438,85.5682Z"/>
      <g>
        <path d="M119.7463,5.732A12.73,12.73,0,0,0,118.0654.1927a.31.31,0,0,0-.4067-.1607c-2.0273,1.0024-4.007,2.0379-5.962,3.0863C108.501,4.832,105.35,6.5889,102.478,8.4858a26.8944,26.8944,0,0,0-3.2735,2.4476,7.2855,7.2855,0,0,0-2.28,4.1778,6.3717,6.3717,0,0,0,1.92,5.8333c.7921-.3132,1.58-.6349,2.3463-.9826,7.1062-3.2683,12.097-7.646,14.432-12.6594.1429-.3065.2773-.6222.4111-.9652l.2863.1068c-1.5828,4.4524-5.1033,8.5057-10.1809,11.7216a43.1663,43.1663,0,0,1-5.0368,2.71c-.4986.2261-1.0259.429-1.5411.6419a9.5546,9.5546,0,0,0,4.15,1.56,11.2244,11.2244,0,0,0,6.691-1.2627,18.4758,18.4758,0,0,0,5.3107-4.2081A15.4371,15.4371,0,0,0,119.7463,5.732Z"/>
        <path d="M95.5738,22.1263c-15.6976,5.04-35.9324,3.8446-50.3517-2.9754-.1007-.0476-.1991-.0966-.2976-.1457l-.3778-.1793c-.0786-.0353-.1573-.0706-.2346-.1072h0C37.5225,15.5075,32.3155,11.182,29.65,6.5391l-.2675.1475c2.8275,5.3418,8.175,10.038,15.467,13.5821,1.3189.61,2.6687,1.171,4.0118,1.6686a74.4966,74.4966,0,0,0,25.3062,4.3079q.58,0,1.16-.0087a67.3528,67.3528,0,0,0,24.234-4.7192,6.9578,6.9578,0,0,1-.7169-.5728C97.7688,21.37,96.68,21.7713,95.5738,22.1263Z"/>
      </g>
    </g>
  </g>
</svg>
